<?xml version="1.0" encoding="UTF-8" standalone="no"?>
<!-- Created with Inkscape (http://www.inkscape.org/) -->

<svg
   xmlns:dc="http://purl.org/dc/elements/1.1/"
   xmlns:cc="http://creativecommons.org/ns#"
   xmlns:rdf="http://www.w3.org/1999/02/22-rdf-syntax-ns#"
   xmlns:svg="http://www.w3.org/2000/svg"
   xmlns="http://www.w3.org/2000/svg"
   xmlns:sodipodi="http://sodipodi.sourceforge.net/DTD/sodipodi-0.dtd"
   xmlns:inkscape="http://www.inkscape.org/namespaces/inkscape"
   width="346.3009mm"
   height="73.676575mm"
   viewBox="0 0 1227.0505 261.05873"
   id="svg2"
   version="1.1"
   inkscape:version="0.91 r13725"
   sodipodi:docname="logo.svg"
   inkscape:export-filename="/home/schartz/code/playground/webrtc/easyrtc/server_example/assets/images/logo.png"
   inkscape:export-xdpi="90"
   inkscape:export-ydpi="90">
  <defs
     id="defs4" />
  <sodipodi:namedview
     id="base"
     pagecolor="#ffffff"
     bordercolor="#666666"
     borderopacity="1.0"
     inkscape:pageopacity="0.0"
     inkscape:pageshadow="2"
     inkscape:zoom="0.35"
     inkscape:cx="448.51859"
     inkscape:cy="21.836258"
     inkscape:document-units="px"
     inkscape:current-layer="layer1"
     showgrid="false"
     fit-margin-top="0"
     fit-margin-left="0"
     fit-margin-right="0"
     fit-margin-bottom="0"
     inkscape:window-width="1920"
     inkscape:window-height="1056"
     inkscape:window-x="0"
     inkscape:window-y="24"
     inkscape:window-maximized="1" />
  <metadata
     id="metadata7">
    <rdf:RDF>
      <cc:Work
         rdf:about="">
        <dc:format>image/svg+xml</dc:format>
        <dc:type
           rdf:resource="http://purl.org/dc/dcmitype/StillImage" />
        <dc:title></dc:title>
      </cc:Work>
    </rdf:RDF>
  </metadata>
  <g
     inkscape:label="Layer 1"
     inkscape:groupmode="layer"
     id="layer1"
     transform="translate(176.09778,-310.28259)">
    <text
       xml:space="preserve"
       style="font-style:normal;font-variant:normal;font-weight:normal;font-stretch:normal;font-size:178.50234985px;line-height:125%;font-family:Blanka;-inkscape-font-specification:Blanka;letter-spacing:0px;word-spacing:0px;fill:#ffffff;fill-opacity:1;stroke:none;stroke-width:1px;stroke-linecap:butt;stroke-linejoin:miter;stroke-opacity:1"
       x="-187.87894"
       y="547.54382"
       id="text4136"
       sodipodi:linespacing="125%"
       inkscape:export-xdpi="90"
       inkscape:export-ydpi="90"><tspan
         sodipodi:role="line"
         id="tspan4138"
         x="-187.87894"
         y="547.54382"
         style="font-style:normal;font-variant:normal;font-weight:600;font-stretch:normal;font-family:Dosis;-inkscape-font-specification:'Dosis Semi-Bold';fill:#ffffff;fill-opacity:1">In Video Call</tspan></text>
    <g
       transform="matrix(11.463776,0,0,11.463776,-680.85172,716.22199)"
       id="g15"
       style="fill:#ffffff;fill-opacity:1"
       inkscape:export-xdpi="90"
       inkscape:export-ydpi="90" />
    <g
       transform="matrix(11.463776,0,0,11.463776,-680.85172,716.22199)"
       id="g17"
       style="fill:#ffffff;fill-opacity:1"
       inkscape:export-xdpi="90"
       inkscape:export-ydpi="90" />
    <g
       transform="matrix(11.463776,0,0,11.463776,-680.85172,716.22199)"
       id="g19"
       style="fill:#ffffff;fill-opacity:1"
       inkscape:export-xdpi="90"
       inkscape:export-ydpi="90" />
    <g
       transform="matrix(11.463776,0,0,11.463776,-680.85172,716.22199)"
       id="g21"
       style="fill:#ffffff;fill-opacity:1"
       inkscape:export-xdpi="90"
       inkscape:export-ydpi="90" />
    <g
       transform="matrix(11.463776,0,0,11.463776,-680.85172,716.22199)"
       id="g23"
       style="fill:#ffffff;fill-opacity:1"
       inkscape:export-xdpi="90"
       inkscape:export-ydpi="90" />
    <g
       transform="matrix(11.463776,0,0,11.463776,-680.85172,716.22199)"
       id="g25"
       style="fill:#ffffff;fill-opacity:1"
       inkscape:export-xdpi="90"
       inkscape:export-ydpi="90" />
    <g
       transform="matrix(11.463776,0,0,11.463776,-680.85172,716.22199)"
       id="g27"
       style="fill:#ffffff;fill-opacity:1"
       inkscape:export-xdpi="90"
       inkscape:export-ydpi="90" />
    <g
       transform="matrix(11.463776,0,0,11.463776,-680.85172,716.22199)"
       id="g29"
       style="fill:#ffffff;fill-opacity:1"
       inkscape:export-xdpi="90"
       inkscape:export-ydpi="90" />
    <g
       transform="matrix(11.463776,0,0,11.463776,-680.85172,716.22199)"
       id="g31"
       style="fill:#ffffff;fill-opacity:1"
       inkscape:export-xdpi="90"
       inkscape:export-ydpi="90" />
    <g
       transform="matrix(11.463776,0,0,11.463776,-680.85172,716.22199)"
       id="g33"
       style="fill:#ffffff;fill-opacity:1"
       inkscape:export-xdpi="90"
       inkscape:export-ydpi="90" />
    <g
       transform="matrix(11.463776,0,0,11.463776,-680.85172,716.22199)"
       id="g35"
       style="fill:#ffffff;fill-opacity:1"
       inkscape:export-xdpi="90"
       inkscape:export-ydpi="90" />
    <g
       transform="matrix(11.463776,0,0,11.463776,-680.85172,716.22199)"
       id="g37"
       style="fill:#ffffff;fill-opacity:1"
       inkscape:export-xdpi="90"
       inkscape:export-ydpi="90" />
    <g
       transform="matrix(11.463776,0,0,11.463776,-680.85172,716.22199)"
       id="g39"
       style="fill:#ffffff;fill-opacity:1"
       inkscape:export-xdpi="90"
       inkscape:export-ydpi="90" />
    <g
       transform="matrix(11.463776,0,0,11.463776,-680.85172,716.22199)"
       id="g41"
       style="fill:#ffffff;fill-opacity:1"
       inkscape:export-xdpi="90"
       inkscape:export-ydpi="90" />
    <g
       transform="matrix(11.463776,0,0,11.463776,-680.85172,716.22199)"
       id="g43"
       style="fill:#ffffff;fill-opacity:1"
       inkscape:export-xdpi="90"
       inkscape:export-ydpi="90" />
    <g
       style="fill:#ffffff;fill-opacity:1;stroke:#ffffff;stroke-width:0.62915254;stroke-miterlimit:4;stroke-dasharray:none;stroke-opacity:1"
       transform="matrix(7.9471984,0,0,7.9471984,751.43406,292.30264)"
       id="g3">
      <g
         style="fill:#ffffff;fill-opacity:1;stroke:#ffffff;stroke-width:0.62915254;stroke-miterlimit:4;stroke-dasharray:none;stroke-opacity:1"
         id="g5">
        <path
           style="fill:#ffffff;fill-opacity:1;stroke:#ffffff;stroke-width:0.62915254;stroke-miterlimit:4;stroke-dasharray:none;stroke-opacity:1"
           inkscape:connector-curvature="0"
           d="m 23.125,34.797 -20.253,0 C 1.288,34.797 0,33.509 0,31.927 L 0,16.719 c 0,-1.583 1.288,-2.87 2.872,-2.87 l 20.253,0 c 1.583,0 2.87,1.288 2.87,2.87 l 0,15.208 c 0,1.582 -1.287,2.87 -2.87,2.87 z M 2.872,14.849 C 1.84,14.849 1,15.688 1,16.719 l 0,15.208 c 0,1.031 0.84,1.87 1.872,1.87 l 20.253,0 c 1.031,0 1.87,-0.839 1.87,-1.87 l 0,-15.208 c 0,-1.031 -0.839,-1.87 -1.87,-1.87 l -20.253,0 z"
           id="path7" />
        <path
           style="fill:#ffffff;fill-opacity:1;stroke:#ffffff;stroke-width:0.62915254;stroke-miterlimit:4;stroke-dasharray:none;stroke-opacity:1"
           inkscape:connector-curvature="0"
           d="m 36.874,33.086 c -0.104,0 -0.207,-0.032 -0.294,-0.096 L 25.201,24.724 c -0.13,-0.094 -0.206,-0.244 -0.206,-0.404 0,-0.16 0.077,-0.311 0.206,-0.405 l 11.376,-8.261 c 0.151,-0.11 0.354,-0.125 0.521,-0.041 0.168,0.085 0.273,0.257 0.273,0.445 l 0.003,16.526 c 0,0.188 -0.105,0.36 -0.272,0.445 -0.073,0.039 -0.151,0.057 -0.228,0.057 z M 26.346,24.32 36.374,31.604 36.371,17.04 26.346,24.32 Z"
           id="path9" />
      </g>
      <path
         style="fill:#ffffff;fill-opacity:1;stroke:#ffffff;stroke-width:0.62915254;stroke-miterlimit:4;stroke-dasharray:none;stroke-opacity:1"
         inkscape:connector-curvature="0"
         d="M 6.135,14.849 C 2.752,14.849 0,12.096 0,8.713 0,5.33 2.752,2.577 6.135,2.577 c 3.383,0 6.136,2.752 6.136,6.136 0,3.384 -2.753,6.136 -6.136,6.136 z m 0,-11.272 C 3.304,3.577 1,5.881 1,8.713 c 0,2.832 2.304,5.136 5.135,5.136 2.832,0 5.136,-2.304 5.136,-5.136 0,-2.832 -2.304,-5.136 -5.136,-5.136 z"
         id="path11" />
      <path
         style="fill:#ffffff;fill-opacity:1;stroke:#ffffff;stroke-width:0.62915254;stroke-miterlimit:4;stroke-dasharray:none;stroke-opacity:1"
         inkscape:connector-curvature="0"
         d="m 19.859,14.849 c -3.383,0 -6.136,-2.752 -6.136,-6.136 0,-3.384 2.753,-6.136 6.136,-6.136 3.383,0 6.136,2.752 6.136,6.136 0,3.384 -2.753,6.136 -6.136,6.136 z m 0,-11.272 c -2.832,0 -5.136,2.304 -5.136,5.136 0,2.832 2.304,5.136 5.136,5.136 2.832,0 5.136,-2.304 5.136,-5.136 0,-2.832 -2.304,-5.136 -5.136,-5.136 z"
         id="path13" />
    </g>
    <g
       style="fill:#ffffff;fill-opacity:1;stroke:#ffffff;stroke-width:2.03718662;stroke-miterlimit:4;stroke-dasharray:none;stroke-opacity:1"
       id="g5200"
       transform="matrix(2.4543653,0,0,2.4543653,787.36986,433.09521)">
      <g
         style="fill:#ffffff;fill-opacity:1;stroke:#ffffff;stroke-width:2.03718662;stroke-miterlimit:4;stroke-dasharray:none;stroke-opacity:1"
         id="g5154">
        <path
           style="fill:#ffffff;fill-opacity:1;stroke:#ffffff;stroke-width:2.03718662;stroke-miterlimit:4;stroke-dasharray:none;stroke-opacity:1"
           id="path5156"
           d="M 54.615,19.123 C 47.372,11.879 37.725,7.89 27.454,7.89 17.183,7.89 7.537,11.878 0.293,19.123 c -0.391,0.391 -0.391,1.023 0,1.414 0.391,0.391 1.023,0.391 1.414,0 6.866,-6.867 16.01,-10.648 25.747,-10.648 9.737,0 18.881,3.781 25.747,10.647 0.195,0.195 0.451,0.293 0.707,0.293 0.256,0 0.512,-0.098 0.707,-0.293 0.391,-0.39 0.391,-1.023 0,-1.413 z"
           inkscape:connector-curvature="0" />
        <path
           style="fill:#ffffff;fill-opacity:1;stroke:#ffffff;stroke-width:2.03718662;stroke-miterlimit:4;stroke-dasharray:none;stroke-opacity:1"
           id="path5158"
           d="m 6.171,25 c -0.391,0.391 -0.391,1.023 0,1.414 0.195,0.195 0.451,0.293 0.707,0.293 0.256,0 0.512,-0.098 0.707,-0.293 10.955,-10.956 28.781,-10.956 39.737,0 0.391,0.391 1.023,0.391 1.414,0 0.391,-0.391 0.391,-1.023 0,-1.414 C 37.002,13.266 17.907,13.264 6.171,25 Z"
           inkscape:connector-curvature="0" />
        <path
           style="fill:#ffffff;fill-opacity:1;stroke:#ffffff;stroke-width:2.03718662;stroke-miterlimit:4;stroke-dasharray:none;stroke-opacity:1"
           id="path5160"
           d="m 27.454,24.508 c -5.825,0 -11.295,2.263 -15.404,6.371 -0.391,0.391 -0.391,1.023 0,1.414 0.391,0.391 1.023,0.391 1.414,0 3.731,-3.73 8.699,-5.785 13.99,-5.785 5.291,0 10.259,2.055 13.99,5.785 0.195,0.195 0.451,0.293 0.707,0.293 0.256,0 0.512,-0.098 0.707,-0.293 0.391,-0.391 0.391,-1.023 0,-1.414 -4.108,-4.108 -9.579,-6.371 -15.404,-6.371 z"
           inkscape:connector-curvature="0" />
        <path
           style="fill:#ffffff;fill-opacity:1;stroke:#ffffff;stroke-width:2.03718662;stroke-miterlimit:4;stroke-dasharray:none;stroke-opacity:1"
           id="path5162"
           d="m 27.454,33.916 c -3.612,0 -6.551,2.939 -6.551,6.552 0,3.613 2.939,6.552 6.551,6.552 3.613,0 6.552,-2.939 6.552,-6.552 0,-3.613 -2.939,-6.552 -6.552,-6.552 z m 0,11.103 c -2.51,0 -4.551,-2.042 -4.551,-4.552 0,-2.51 2.042,-4.552 4.551,-4.552 2.509,0 4.552,2.042 4.552,4.552 0,2.51 -2.042,4.552 -4.552,4.552 z"
           inkscape:connector-curvature="0" />
      </g>
      <g
         style="fill:#ffffff;fill-opacity:1;stroke:#ffffff;stroke-width:2.03718662;stroke-miterlimit:4;stroke-dasharray:none;stroke-opacity:1"
         id="g5164" />
      <g
         style="fill:#ffffff;fill-opacity:1;stroke:#ffffff;stroke-width:2.03718662;stroke-miterlimit:4;stroke-dasharray:none;stroke-opacity:1"
         id="g5166" />
      <g
         style="fill:#ffffff;fill-opacity:1;stroke:#ffffff;stroke-width:2.03718662;stroke-miterlimit:4;stroke-dasharray:none;stroke-opacity:1"
         id="g5168" />
      <g
         style="fill:#ffffff;fill-opacity:1;stroke:#ffffff;stroke-width:2.03718662;stroke-miterlimit:4;stroke-dasharray:none;stroke-opacity:1"
         id="g5170" />
      <g
         style="fill:#ffffff;fill-opacity:1;stroke:#ffffff;stroke-width:2.03718662;stroke-miterlimit:4;stroke-dasharray:none;stroke-opacity:1"
         id="g5172" />
      <g
         style="fill:#ffffff;fill-opacity:1;stroke:#ffffff;stroke-width:2.03718662;stroke-miterlimit:4;stroke-dasharray:none;stroke-opacity:1"
         id="g5174" />
      <g
         style="fill:#ffffff;fill-opacity:1;stroke:#ffffff;stroke-width:2.03718662;stroke-miterlimit:4;stroke-dasharray:none;stroke-opacity:1"
         id="g5176" />
      <g
         style="fill:#ffffff;fill-opacity:1;stroke:#ffffff;stroke-width:2.03718662;stroke-miterlimit:4;stroke-dasharray:none;stroke-opacity:1"
         id="g5178" />
      <g
         style="fill:#ffffff;fill-opacity:1;stroke:#ffffff;stroke-width:2.03718662;stroke-miterlimit:4;stroke-dasharray:none;stroke-opacity:1"
         id="g5180" />
      <g
         style="fill:#ffffff;fill-opacity:1;stroke:#ffffff;stroke-width:2.03718662;stroke-miterlimit:4;stroke-dasharray:none;stroke-opacity:1"
         id="g5182" />
      <g
         style="fill:#ffffff;fill-opacity:1;stroke:#ffffff;stroke-width:2.03718662;stroke-miterlimit:4;stroke-dasharray:none;stroke-opacity:1"
         id="g5184" />
      <g
         style="fill:#ffffff;fill-opacity:1;stroke:#ffffff;stroke-width:2.03718662;stroke-miterlimit:4;stroke-dasharray:none;stroke-opacity:1"
         id="g5186" />
      <g
         style="fill:#ffffff;fill-opacity:1;stroke:#ffffff;stroke-width:2.03718662;stroke-miterlimit:4;stroke-dasharray:none;stroke-opacity:1"
         id="g5188" />
      <g
         style="fill:#ffffff;fill-opacity:1;stroke:#ffffff;stroke-width:2.03718662;stroke-miterlimit:4;stroke-dasharray:none;stroke-opacity:1"
         id="g5190" />
      <g
         style="fill:#ffffff;fill-opacity:1;stroke:#ffffff;stroke-width:2.03718662;stroke-miterlimit:4;stroke-dasharray:none;stroke-opacity:1"
         id="g5192" />
    </g>
  </g>
</svg>
